PathFileType	4	(X/Y/Z)	C:\Users\Basilio\Documents\Thesis Gigler\squatting_fais\c3dfiles\073\SJ_pre2\markers_experimental.trc
DataRate	CameraRate	NumFrames	NumMarkers	Units	OrigDataRate	OrigDataStartFrame	OrigNumFrames
200.000000	200.000000	4	61	mm	200.000000	0	1514
Frame#	Time	FHD			LBHD			RBHD			C7			T10			CLAV			LSHO			LUUPA			LMUPA			LDUPA			LLEP			LMEP			LRAD			LUL			LRFIN			RSHO			RUPA1			RMUPA			RDUPA			RLEP			RMEP			RRAD			RUL			RUFIN			LASI			RASI			USACR			LSACR			RSACR			LTHI1			LTHI2			LTHI3			LTHI4			LLFC			LMFC			LTIB1			LTIB2			LTIB3			LTIB4			LLMAL			LMMAL			LHEE			LMT1			LMT2			LMT5			RTHI			RTHI2			RTHI3			RTHI4			RLFC			RMFC			RTIB1			RTIB2			RTIB3			RTIB4			RLMAL			RMMAL			RHEE			RMT1			RMT2			RMT5			
		X1	Y1	Z1	X2	Y2	Z2	X3	Y3	Z3	X4	Y4	Z4	X5	Y5	Z5	X6	Y6	Z6	X7	Y7	Z7	X8	Y8	Z8	X9	Y9	Z9	X10	Y10	Z10	X11	Y11	Z11	X12	Y12	Z12	X13	Y13	Z13	X14	Y14	Z14	X15	Y15	Z15	X16	Y16	Z16	X17	Y17	Z17	X18	Y18	Z18	X19	Y19	Z19	X20	Y20	Z20	X21	Y21	Z21	X22	Y22	Z22	X23	Y23	Z23	X24	Y24	Z24	X25	Y25	Z25	X26	Y26	Z26	X27	Y27	Z27	X28	Y28	Z28	X29	Y29	Z29	X30	Y30	Z30	X31	Y31	Z31	X32	Y32	Z32	X33	Y33	Z33	X34	Y34	Z34	X35	Y35	Z35	X36	Y36	Z36	X37	Y37	Z37	X38	Y38	Z38	X39	Y39	Z39	X40	Y40	Z40	X41	Y41	Z41	X42	Y42	Z42	X43	Y43	Z43	X44	Y44	Z44	X45	Y45	Z45	X46	Y46	Z46	X47	Y47	Z47	X48	Y48	Z48	X49	Y49	Z49	X50	Y50	Z50	X51	Y51	Z51	X52	Y52	Z52	X53	Y53	Z53	X54	Y54	Z54	X55	Y55	Z55	X56	Y56	Z56	X57	Y57	Z57	X58	Y58	Z58	X59	Y59	Z59	X60	Y60	Z60	X61	Y61	Z61	

1	0	-276.1753234863282	1690.5234375	-941.5994873046877	-396.7132873535157	1627.356323242188	-976.341247558594	-425.144500732422	1602.893432617188	-845.2800292968752	-435.4769592285157	1521.493530273438	-904.7506103515627	-485.0581665039064	1180.379760742188	-905.9526367187502	-316.4956359863282	1430.774169921875	-903.9848632812502	-341.3231201171876	1458.903564453125	-1078.24462890625	-420.4512023925782	1362.246215820313	-1195.1162109375	-399.2268371582032	1316.1484375	-1196.263305664063	-448.4075622558595	1309.954345703125	-1233.531494140625	-478.1567687988282	1221.614624023438	-1278.875366210938	-546.4957275390626	1202.804809570313	-1234.1064453125	-385.4920654296876	1024.38525390625	-1126.655151367188	-348.9367675781251	1006.678161621094	-1188.315551757813	-344.2156677246094	1015.2236328125	-1081.5224609375	-329.7289428710938	1451.994995117188	-734.2098388671876	-416.2056274414064	1367.353759765625	-593.9605102539064	-399.3996582031251	1321.395629882813	-587.3702392578126	-447.9497375488282	1321.805541992188	-552.0336914062501	-468.6968078613282	1242.355224609375	-505.9878540039064	-542.4647827148439	1225.944580078125	-561.9077758789064	-425.1265563964845	1026.279418945313	-659.3853759765626	-380.3936462402344	1007.312622070313	-602.1586914062501	-363.9079895019532	1019.853332519531	-703.9653320312501	-306.3432617187501	1020.074462890625	-1028.931274414063	-308.6344909667969	1012.245666503906	-774.2293701171877	-492.2373046875001	1076.881103515625	-898.639343261719	-502.2276306152345	1048.111083984375	-927.534118652344	-496.4101562500001	1045.186889648438	-872.7568359375002	-394.5751342773439	714.6638183593751	-1119.5029296875	-374.3615112304688	633.5618896484376	-1108.28955078125	-334.7787780761719	628.8712158203126	-1079.74267578125	-413.1458740234376	587.9969482421876	-1109.471313476563	-425.8024291992189	528.8701782226564	-1117.995727539063	-426.4016113281251	505.700408935547	-981.3528442382815	-384.5035400390626	327.9342956542969	-1095.390258789063	-446.2099914550782	293.2568969726563	-1146.962646484375	-403.6341857910157	284.2132263183594	-1130.720703125	-401.0384216308595	202.6396179199219	-1105.958374023438	-465.0352478027345	86.95086669921876	-1137.650146484375	-448.0156250000001	103.461654663086	-1052.621459960938	-518.5995483398439	50.04470062255861	-1097.33837890625	-289.9729614257813	54.4839324951172	-1077.595581054688	-293.4511718750001	53.36241912841798	-1115.576293945313	-330.8706359863282	36.96107864379884	-1170.067016601563	-424.0018005371095	796.2019653320315	-690.9624633789064	-396.6970214843751	736.2079467773439	-681.9982299804689	-363.2990112304688	733.2312622070314	-685.6026611328126	-435.4822082519532	661.7843627929689	-695.5443725585939	-433.952850341797	511.4053344726564	-693.2907104492189	-420.1199645996095	483.2854003906251	-819.9448242187502	-383.3479309082032	341.9024353027344	-754.1290283203126	-413.4231567382814	268.5295715332032	-679.9398803710939	-384.3747863769532	262.8665771484376	-717.8709716796876	-395.6881713867189	212.9859161376954	-746.0114746093751	-449.6197814941407	87.66948699951173	-684.9895629882814	-427.2850341796876	100.2573318481446	-771.3994750976565	-506.4089355468751	44.72574615478516	-744.2978515625001	-278.1308898925782	55.46868133544923	-710.8478393554689	-286.7666320800782	53.9525833129883	-671.7344970703126	-335.6554565429688	35.29458236694337	-629.6423339843751	
2	0.005	-276.3648376464844	1690.504028320313	-941.970642089844	-396.8705139160157	1627.359008789063	-976.4804687500002	-425.2957458496095	1602.958374023438	-845.4761352539065	-435.5679626464845	1521.495727539063	-904.949157714844	-485.1795959472657	1180.388427734375	-906.1933593750002	-316.5545349121094	1430.82470703125	-904.162536621094	-341.3887634277344	1458.94580078125	-1078.45458984375	-420.4378051757814	1362.265014648438	-1195.36083984375	-399.2020568847657	1316.187622070313	-1196.476806640625	-448.4221496582032	1309.96240234375	-1233.849243164063	-478.1569213867189	1221.583740234375	-1279.1298828125	-546.4459228515626	1202.774658203125	-1234.392700195313	-385.542449951172	1024.393432617188	-1126.871215820313	-348.9085693359376	1006.683837890625	-1188.493896484375	-344.2047729492188	1015.1962890625	-1081.731567382813	-329.8283691406251	1451.984008789063	-734.3665771484376	-416.3801879882814	1367.344848632813	-594.1890258789064	-399.5576782226564	1321.388549804688	-587.5760498046876	-448.1207580566407	1321.792602539063	-552.2109985351564	-468.8511962890626	1242.342041015625	-506.2361145019532	-542.6006469726564	1225.940673828125	-562.1708984375001	-425.2480773925782	1026.2861328125	-659.6682739257814	-380.5216064453126	1007.298767089844	-602.4258422851564	-364.0314331054688	1019.834777832031	-704.2565917968751	-306.4110412597657	1020.084106445313	-1029.10595703125	-308.7959289550782	1012.28076171875	-774.4819335937502	-492.4387512207032	1076.88134765625	-898.8623046875002	-502.3464965820314	1048.110229492188	-927.746276855469	-496.7326049804689	1045.188720703125	-872.9516601562502	-394.6421203613282	714.7813110351564	-1119.679809570313	-374.3639831542969	633.5697021484376	-1108.54443359375	-334.4757690429688	628.9669189453126	-1080.1796875	-413.3272705078126	588.0447998046876	-1109.620361328125	-426.022674560547	528.8756103515626	-1118.184326171875	-426.5625915527345	505.7393188476564	-981.5550537109377	-384.5924072265626	327.9626770019532	-1095.53857421875	-446.3458557128907	293.2650146484376	-1147.033447265625	-403.7815551757814	284.2029418945313	-1130.892333984375	-401.1262817382814	202.6462097167969	-1105.995239257813	-465.0605773925782	86.93084716796876	-1137.68603515625	-448.0228576660157	103.4533004760742	-1052.682739257813	-518.5869750976564	50.0258026123047	-1097.326538085938	-290.0950927734376	54.43196868896486	-1077.567626953125	-293.5204162597657	53.32446670532228	-1115.572021484375	-330.8908996582032	36.96481323242188	-1170.079833984375	-424.1247558593751	796.197448730469	-691.2003173828126	-396.7685852050782	736.2138671875001	-682.1533813476564	-363.3817443847657	733.2190551757814	-685.7579956054689	-435.5694580078126	661.7582397460939	-695.7077026367189	-433.992401123047	511.4033508300782	-693.4309692382814	-420.1639099121095	483.2291564941407	-820.0256347656252	-383.3748779296876	341.9008178710938	-754.2321777343751	-413.4254455566407	268.5325317382813	-679.9492187500001	-384.3698120117189	262.8847045898438	-717.9515380859376	-395.6954650878907	212.9954681396485	-746.0802001953126	-449.6043395996095	87.68794250488283	-685.0012207031251	-427.2017517089845	100.2579040527344	-771.4309692382815	-506.4249267578126	44.72893142700196	-744.2902221679689	-278.0856323242188	55.47241210937501	-710.8610839843751	-286.7576904296876	53.94127273559572	-671.7023315429689	-335.6486206054688	35.30274200439454	-629.6732177734376	
3	0.01	-276.3508605957032	1690.514770507813	-942.178894042969	-397.009246826172	1627.353637695313	-976.6196289062502	-425.346405029297	1602.9619140625	-845.607360839844	-435.6825561523439	1521.51123046875	-905.1406860351565	-485.2880249023439	1180.399291992188	-906.4714355468752	-316.6174621582032	1430.843139648438	-904.3758544921877	-341.4497680664063	1458.995483398438	-1078.613647460938	-420.5036926269532	1362.271606445313	-1195.679321289063	-399.219207763672	1316.22412109375	-1196.655883789063	-448.4075012207032	1309.972290039063	-1234.15234375	-478.1234741210939	1221.603393554688	-1279.371459960938	-546.3875732421876	1202.788330078125	-1234.747192382813	-385.5426025390626	1024.395385742188	-1127.146240234375	-348.9326171875001	1006.682373046875	-1188.698120117188	-344.2740173339844	1015.204406738281	-1081.953857421875	-329.9512329101563	1452.005004882813	-734.5938110351564	-416.4927978515626	1367.322998046875	-594.4131469726564	-399.7861633300782	1321.237426757813	-587.9058837890626	-448.5843200683595	1321.491455078125	-552.6470947265626	-468.9535217285157	1242.327880859375	-506.4272460937501	-542.7165527343751	1225.934448242188	-562.3272094726564	-425.4349975585939	1026.269287109375	-659.9046630859376	-380.6458129882813	1007.304870605469	-602.5901489257814	-364.2021789550782	1019.84228515625	-704.4837646484376	-306.3919677734376	1020.087036132813	-1029.229370117188	-308.9148254394532	1012.260192871094	-774.6876220703127	-492.5755920410157	1076.892944335938	-899.065124511719	-502.4329223632814	1048.079833984375	-927.9824218750002	-496.7036743164064	1045.18408203125	-873.2253417968752	-394.8154907226564	714.8709106445314	-1119.93408203125	-374.6298522949219	633.5650024414064	-1108.64794921875	-335.1049194335938	628.8601074218751	-1080.061401367188	-413.4779357910157	588.0357055664064	-1109.8251953125	-426.2510070800782	528.8507690429689	-1118.34326171875	-426.8201293945314	505.7826232910157	-981.684020996094	-384.7808227539064	327.9486083984376	-1095.603271484375	-446.5079650878907	293.1992797851563	-1147.218017578125	-403.923309326172	284.2090148925782	-1131.011108398438	-401.1457519531251	202.6930694580079	-1106.079223632813	-465.103973388672	86.93482971191408	-1137.697875976563	-448.0223693847657	103.4650802612305	-1052.6923828125	-518.5910644531251	50.01302337646486	-1097.332275390625	-290.0356750488282	54.45725250244142	-1077.629272460938	-293.5172729492188	53.33015060424806	-1115.582153320313	-330.9212341308594	36.94479370117188	-1170.098510742188	-424.2777709960939	796.197937011719	-691.4270019531251	-396.8488769531251	736.2191772460939	-682.3439331054689	-363.4932250976563	733.2648925781251	-685.9270629882814	-435.6460876464845	661.7465820312501	-695.8735351562501	-434.0200805664064	511.413787841797	-693.5639038085939	-420.1810302734376	483.1961975097657	-820.1040649414065	-383.4081420898438	341.8904113769532	-754.3021850585939	-413.463348388672	268.5346374511719	-680.0673217773439	-384.3662719726564	262.9069824218751	-717.9827270507814	-395.6865844726564	212.9781646728516	-746.1282348632814	-449.5855102539064	87.6818313598633	-685.0333251953126	-427.2034606933595	100.2321243286133	-771.4212036132815	-506.4062500000001	44.74076843261719	-744.2991333007814	-278.1311035156251	55.47644424438478	-710.8421630859376	-286.7521057128907	53.94787597656251	-671.7150268554689	-335.6486206054688	35.30275344848634	-629.6732177734376	
4	0.015	-276.4084472656251	1690.524536132813	-942.4131469726565	-397.1100463867189	1627.350219726563	-976.8027343750002	-425.431365966797	1602.990844726563	-845.8182373046877	-435.8280639648439	1521.522827148438	-905.374206542969	-485.5124816894532	1180.401489257813	-906.7226562500002	-316.7617492675782	1430.874267578125	-904.6057739257815	-341.5151672363282	1459.02001953125	-1078.81787109375	-420.5288391113282	1362.2607421875	-1195.89794921875	-399.2031555175782	1316.222290039063	-1196.921264648438	-448.3966369628907	1309.959228515625	-1234.39697265625	-478.0353393554689	1221.582397460938	-1279.5830078125	-546.3759765625001	1202.786499023438	-1235.033081054688	-385.5650939941407	1024.39111328125	-1127.409301757813	-348.9082641601563	1006.683288574219	-1188.937866210938	-344.2510681152344	1015.186889648438	-1082.2353515625	-330.0739440917969	1452.004760742188	-734.8042602539064	-416.6181945800782	1367.316284179688	-594.6384887695314	-399.8291015625001	1321.388793945313	-588.0305175781251	-448.3472900390626	1321.785278320313	-552.6712646484376	-469.1096801757814	1242.32568359375	-506.660369873047	-542.8886718750001	1225.9326171875	-562.5674438476564	-425.6203613281251	1026.300903320313	-660.1613769531251	-380.8026123046876	1007.305480957031	-602.7629394531251	-364.3619995117188	1019.888427734375	-704.7268066406251	-306.4164428710938	1020.153991699219	-1029.343139648438	-309.0618286132813	1012.236633300781	-774.9668579101565	-492.6758117675782	1076.893432617188	-899.2947998046877	-502.5984191894532	1048.121826171875	-928.206726074219	-497.0428771972657	1045.102783203125	-873.385437011719	-394.8917541503907	714.7159423828126	-1120.088256835938	-374.6328735351563	633.5581665039064	-1108.870483398438	-334.8075561523438	628.8933715820314	-1080.452026367188	-413.6512451171876	588.0164184570314	-1110.023071289063	-426.4191894531251	528.8600463867189	-1118.47021484375	-427.0344238281251	505.8118896484376	-981.903747558594	-384.8272705078126	328.0238952636719	-1095.699096679688	-446.4011230468751	293.1651611328126	-1147.261352539063	-404.022674560547	284.1763000488282	-1131.077270507813	-401.2652282714845	202.7204284667969	-1106.18701171875	-465.1214599609376	86.9290237426758	-1137.732299804688	-448.0494995117189	103.4905776977539	-1052.730346679688	-518.5904541015626	50.02176666259767	-1097.340087890625	-289.9735717773438	54.47771072387697	-1077.657592773438	-293.4870605468751	53.32687377929689	-1115.625244140625	-330.9174194335938	36.92465209960938	-1170.108032226563	-424.3871459960939	796.2098388671877	-691.6652832031251	-396.9273376464845	736.2160034179689	-682.5565795898439	-363.5682678222657	733.2772216796876	-686.0966186523439	-435.7116699218751	661.7456054687501	-696.0152587890626	-434.0751037597657	511.4096984863282	-693.7590942382814	-420.099334716797	483.1663818359376	-820.2915039062502	-383.4265441894532	341.8880615234376	-754.3493041992189	-413.4983215332032	268.5632629394532	-680.1050415039064	-384.4134216308595	262.9015808105469	-718.0325317382814	-395.7076110839845	212.9729003906251	-746.1691894531251	-449.5848083496095	87.68005371093751	-685.0413818359376	-427.1994018554689	100.2068252563477	-771.434509277344	-506.4063110351564	44.74078369140626	-744.2991333007814	-278.0848693847657	55.524227142334	-710.8109130859376	-286.7516784667969	53.94695281982423	-671.7152099609376	-335.6301269531251	35.3103370666504	-629.6594238281251	
